<svg width="140" height="26" viewBox="0 0 140 26" fill="none" xmlns="http://www.w3.org/2000/svg">
<path fill-rule="evenodd" clip-rule="evenodd" d="M118.81 14.7063C118.629 15.141 118.556 15.6119 118.556 16.0828V17.4592H138.624C138.986 17.4592 139.348 17.3143 139.602 17.0608C139.855 16.8072 140 16.445 140 16.0828C140 15.7205 139.855 15.3583 139.602 15.1047C139.348 14.8512 138.986 14.7063 138.624 14.7063H118.81ZM110.008 14.7063H113.014V17.4592H110.008C110.08 17.0245 110.116 16.5536 110.116 16.0828C110.116 15.6119 110.08 15.141 110.008 14.7063ZM83.1307 14.7063H104.357C104.538 15.141 104.611 15.6119 104.611 16.0828C104.611 16.5536 104.502 17.0245 104.357 17.4592H83.3842C83.2031 17.0245 83.1307 16.5536 83.1307 16.0828V14.7063ZM60.7452 14.7063H77.6248V16.0828C77.6248 16.5536 77.6611 17.0245 77.7335 17.4592H60.7814C60.6003 17.0245 60.5278 16.5536 60.5278 16.0828C60.4916 15.5756 60.564 15.1047 60.7452 14.7063ZM55.0944 17.4592H51.9069V14.7063H55.0944C55.022 15.141 54.9858 15.6119 54.9858 16.0828C54.9858 16.5536 55.022 16.9883 55.0944 17.4592ZM37.0194 14.7063C36.8745 15.1047 36.8021 15.5394 36.8021 16.0103V17.4592H46.401V14.7063H37.0194ZM26.8409 14.7063H31.2962V17.4592H26.8409C26.9133 17.0245 26.9495 16.5536 26.9495 16.0828C26.9133 15.6119 26.9133 15.141 26.8409 14.7063ZM21.1539 14.7063C21.3351 15.141 21.4075 15.6119 21.4075 16.0828C21.4075 16.5536 21.2988 17.0245 21.1539 17.4592H1.37646C1.01423 17.4592 0.652005 17.3143 0.398447 17.0608C0.144889 16.8072 0 16.445 0 16.0828C0 15.7205 0.144889 15.3583 0.398447 15.1047C0.652005 14.8512 1.01423 14.7063 1.37646 14.7063H21.1539Z" fill="#9FCB96"/>
<path fill-rule="evenodd" clip-rule="evenodd" d="M8.36752 17.4593H14.1269C14.6702 18.8719 16.0467 19.8499 17.6405 19.8499C19.7414 19.8499 21.4076 18.1475 21.4076 16.0828C21.4076 13.9819 19.7052 12.3157 17.6405 12.3157C16.0467 12.3157 14.6702 13.2937 14.1269 14.7063H8.36752V0.108663H13.8733V7.60673C15.0325 7.09961 16.3003 6.80983 17.6405 6.80983C22.7479 6.80983 26.9134 10.9754 26.9134 16.0828C26.9134 21.1902 22.7841 25.3195 17.6767 25.3558H8.3313V17.4593H8.36752ZM46.4012 25.3558H51.907V6.62871H46.4012V25.3558ZM118.52 16.0828C118.52 13.9819 120.223 12.3157 122.287 12.3157C123.881 12.3157 125.258 13.2937 125.801 14.7063H131.488C130.836 10.251 126.96 6.80983 122.324 6.80983C120.983 6.80983 119.716 7.09961 118.556 7.60673V6.62871H113.014V25.3558H118.52V16.0828ZM36.766 25.3558V15.9741C36.766 13.8732 38.4684 12.207 40.5331 12.207H43.286V6.70116H40.5693C39.2291 6.70116 37.9613 6.99095 36.8022 7.49806V6.5925H31.2964V25.3558H36.766ZM126.091 25.3558H131.597V17.4593H126.091V25.3558ZM73.5318 25.3558H64.2589C59.1515 25.3558 54.9859 21.1902 54.9859 16.0828C54.9859 10.9754 59.1515 6.80983 64.2589 6.80983C68.9316 6.80983 72.7711 10.251 73.4232 14.7063H67.7724C67.2291 13.2937 65.8526 12.3157 64.2589 12.3157C62.1579 12.3157 60.4917 14.0181 60.4917 16.0828C60.4917 18.1837 62.1942 19.8499 64.2589 19.8499C65.8526 19.8499 67.2291 18.8357 67.7724 17.4593H73.5318V25.3558ZM83.1308 6.77361V0.0724494H77.625V6.77361H75.6327V12.2794H77.625V16.0466C77.625 21.1539 81.7906 25.3195 86.8979 25.3195H89.6508V19.8137H86.8979C84.797 19.8137 83.1308 18.1112 83.1308 16.0466V12.2794H86.8979V6.77361H83.1308ZM91.6431 14.7063C92.2951 10.251 96.1709 6.80983 100.807 6.80983C105.915 6.80983 110.08 10.9754 110.08 16.0828C110.08 21.1902 105.915 25.3558 100.807 25.3558C96.1347 25.3558 92.2951 21.9146 91.6431 17.4593H97.2938C97.8371 18.8719 99.2136 19.8499 100.807 19.8499C102.908 19.8499 104.575 18.1475 104.575 16.0828C104.575 13.9819 102.872 12.3157 100.807 12.3157C99.2136 12.3157 97.8371 13.2937 97.2938 14.7063H91.6431ZM49.1541 0C50.6754 0 51.907 1.23157 51.907 2.75291C51.907 4.27426 50.6754 5.50583 49.1541 5.50583C47.6327 5.50583 46.4012 4.27426 46.4012 2.75291C46.4012 1.23157 47.6327 0 49.1541 0Z" fill="black"/>
</svg>
